{
	"asset":{
		"generator":"Khronos glTF Blender I/O v4.3.47",
		"version":"2.0"
	},
	"extensionsUsed":[
		"KHR_materials_clearcoat"
	],
	"scene":0,
	"scenes":[
		{
			"name":"Scene",
			"nodes":[
				0
			]
		}
	],
	"nodes":[
		{
			"mesh":0,
			"name":"pot",
			"rotation":[
				-0.70710688829422,
				0,
				0,
				0.7071066498756409
			],
			"scale":[
				100,
				99.99999237060547,
				82.94011688232422
			],
			"translation":[
				5.815460205078125,
				85.48580169677734,
				-7.505428791046143
			]
		}
	],
	"materials":[
		{
			"doubleSided":true,
			"extensions":{
				"KHR_materials_clearcoat":{
					"clearcoatRoughnessFactor":0.6299999952316284
				}
			},
			"name":"the color of the pot",
			"pbrMetallicRoughness":{
				"baseColorFactor":[
					0.11954579502344131,
					0.0036233202554285526,
					0.027444999665021896,
					1
				]
			}
		},
		{
			"doubleSided":true,
			"name":"The color of the earth",
			"pbrMetallicRoughness":{
				"baseColorFactor":[
					0.023153366521000862,
					0.002428215928375721,
					0.0012141079641878605,
					1
				]
			}
		}
	],
	"meshes":[
		{
			"name":"pot",
			"primitives":[
				{
					"attributes":{
						"POSITION":0,
						"NORMAL":1,
						"TEXCOORD_0":2
					},
					"indices":3,
					"material":0
				},
				{
					"attributes":{
						"POSITION":4,
						"NORMAL":5,
						"TEXCOORD_0":6
					},
					"indices":7,
					"material":1
				}
			]
		}
	],
	"accessors":[
		{
			"bufferView":0,
			"componentType":5126,
			"count":3444,
			"max":[
				1.449752926826477,
				1.449752926826477,
				1.5392417907714844
			],
			"min":[
				-1.449752926826477,
				-1.449752926826477,
				-1
			],
			"type":"VEC3"
		},
		{
			"bufferView":1,
			"componentType":5126,
			"count":3444,
			"type":"VEC3"
		},
		{
			"bufferView":2,
			"componentType":5126,
			"count":3444,
			"type":"VEC2"
		},
		{
			"bufferView":3,
			"componentType":5123,
			"count":3444,
			"type":"SCALAR"
		},
		{
			"bufferView":4,
			"componentType":5126,
			"count":90,
			"max":[
				1.1443040370941162,
				1.130505084991455,
				1.2377218008041382
			],
			"min":[
				-1.1169764995574951,
				-1.1307754516601562,
				1.2377218008041382
			],
			"type":"VEC3"
		},
		{
			"bufferView":5,
			"componentType":5126,
			"count":90,
			"type":"VEC3"
		},
		{
			"bufferView":6,
			"componentType":5126,
			"count":90,
			"type":"VEC2"
		},
		{
			"bufferView":7,
			"componentType":5123,
			"count":90,
			"type":"SCALAR"
		}
	],
	"bufferViews":[
		{
			"buffer":0,
			"byteLength":41328,
			"byteOffset":0,
			"target":34962
		},
		{
			"buffer":0,
			"byteLength":41328,
			"byteOffset":41328,
			"target":34962
		},
		{
			"buffer":0,
			"byteLength":27552,
			"byteOffset":82656,
			"target":34962
		},
		{
			"buffer":0,
			"byteLength":6888,
			"byteOffset":110208,
			"target":34963
		},
		{
			"buffer":0,
			"byteLength":1080,
			"byteOffset":117096,
			"target":34962
		},
		{
			"buffer":0,
			"byteLength":1080,
			"byteOffset":118176,
			"target":34962
		},
		{
			"buffer":0,
			"byteLength":720,
			"byteOffset":119256,
			"target":34962
		},
		{
			"buffer":0,
			"byteLength":180,
			"byteOffset":119976,
			"target":34963
		}
	],
	"buffers":[
		{
			"byteLength":120156,
			"uri":"12gltf.bin"
		}
	]
}
